<svg width="36" height="36" viewBox="0 0 36 36" fill="none" xmlns="http://www.w3.org/2000/svg">
<path d="M18.007 9.91404C13.5352 9.91404 9.92812 13.5211 9.92812 17.9929C9.92812 22.4648 13.5352 26.0718 18.007 26.0718C22.4789 26.0718 26.0859 22.4648 26.0859 17.9929C26.0859 13.5211 22.4789 9.91404 18.007 9.91404ZM18.007 23.2453C15.1172 23.2453 12.7547 20.8898 12.7547 17.9929C12.7547 15.0961 15.1102 12.7406 18.007 12.7406C20.9039 12.7406 23.2594 15.0961 23.2594 17.9929C23.2594 20.8898 20.8969 23.2453 18.007 23.2453ZM28.3008 9.58357C28.3008 10.6312 27.457 11.4679 26.4164 11.4679C25.3687 11.4679 24.532 10.6242 24.532 9.58357C24.532 8.54294 25.3758 7.69919 26.4164 7.69919C27.457 7.69919 28.3008 8.54294 28.3008 9.58357ZM33.6516 11.4961C33.532 8.97185 32.9555 6.73591 31.1062 4.89373C29.2641 3.05154 27.0281 2.47498 24.5039 2.34841C21.9023 2.20076 14.1047 2.20076 11.5031 2.34841C8.98593 2.46794 6.74999 3.04451 4.90078 4.88669C3.05156 6.72888 2.48203 8.96482 2.35546 11.489C2.20781 14.0906 2.20781 21.8883 2.35546 24.4898C2.47499 27.014 3.05156 29.25 4.90078 31.0922C6.74999 32.9344 8.9789 33.5109 11.5031 33.6375C14.1047 33.7851 21.9023 33.7851 24.5039 33.6375C27.0281 33.5179 29.2641 32.9414 31.1062 31.0922C32.9484 29.25 33.525 27.014 33.6516 24.4898C33.7992 21.8883 33.7992 14.0976 33.6516 11.4961ZM30.2906 27.2812C29.7422 28.6593 28.6805 29.7211 27.2953 30.2765C25.2211 31.0992 20.2992 30.9093 18.007 30.9093C15.7148 30.9093 10.7859 31.0922 8.71874 30.2765C7.34062 29.7281 6.2789 28.6664 5.72343 27.2812C4.90078 25.207 5.09062 20.2851 5.09062 17.9929C5.09062 15.7008 4.90781 10.7719 5.72343 8.70466C6.27187 7.32654 7.33359 6.26482 8.71874 5.70935C10.793 4.88669 15.7148 5.07654 18.007 5.07654C20.2992 5.07654 25.2281 4.89373 27.2953 5.70935C28.6734 6.25779 29.7351 7.31951 30.2906 8.70466C31.1133 10.7789 30.9234 15.7008 30.9234 17.9929C30.9234 20.2851 31.1133 25.214 30.2906 27.2812Z" fill="#174478"/>
</svg>
